<svg width="18" height="19" viewBox="0 0 18 19" fill="none" xmlns="http://www.w3.org/2000/svg">
<path d="M0 9.5C0 4.52944 4.02944 0.5 9 0.5C13.9706 0.5 18 4.52944 18 9.5C18 14.4706 13.9706 18.5 9 18.5C4.02944 18.5 0 14.4706 0 9.5Z" fill="#3866DF"/>
<path fill-rule="evenodd" clip-rule="evenodd" d="M9.67469 5.03313C9.90756 4.78893 9.80078 4.3045 9.45624 4.3008C8.10089 4.28626 6.76233 4.79789 5.77398 5.83435C3.83421 7.86854 3.97793 11.1541 6.09499 13.1729C8.21204 15.1917 11.5007 15.1792 13.4405 13.145C14.4289 12.1086 14.8763 10.7472 14.7975 9.39409C14.7774 9.05012 14.2884 8.96646 14.0556 9.21066C12.9472 10.373 11.0679 10.3802 9.85812 9.2266C8.64837 8.073 8.56627 6.19551 9.67469 5.03313Z" fill="#FAFAFA"/>
</svg>
