<svg width="18" height="18" viewBox="0 0 18 18" fill="none" xmlns="http://www.w3.org/2000/svg">
<path d="M0 9C0 4.02944 4.02944 0 9 0C13.9706 0 18 4.02944 18 9C18 13.9706 13.9706 18 9 18C4.02944 18 0 13.9706 0 9Z" fill="#3866DF"/>
<path fill-rule="evenodd" clip-rule="evenodd" d="M9 3C9.33138 3 9.6 3.26863 9.6 3.6V4.2C9.6 4.53137 9.33138 4.8 9 4.8C8.66862 4.8 8.4 4.53137 8.4 4.2V3.6C8.4 3.26863 8.66862 3 9 3ZM3 9C3 8.66862 3.26863 8.4 3.6 8.4H4.2C4.53137 8.4 4.8 8.66862 4.8 9C4.8 9.33138 4.53137 9.6 4.2 9.6H3.6C3.26863 9.6 3 9.33138 3 9ZM13.2 9C13.2 8.66862 13.4686 8.4 13.8 8.4H14.4C14.7314 8.4 15 8.66862 15 9C15 9.33138 14.7314 9.6 14.4 9.6H13.8C13.4686 9.6 13.2 9.33138 13.2 9ZM9.6 13.8C9.6 13.4686 9.33138 13.2 9 13.2C8.66862 13.2 8.4 13.4686 8.4 13.8V14.4C8.4 14.7314 8.66862 15 9 15C9.33138 15 9.6 14.7314 9.6 14.4V13.8ZM12.8183 11.9699C12.584 11.7355 12.2041 11.7355 11.9698 11.9699C11.7355 12.2042 11.7355 12.584 11.9698 12.8184L12.394 13.2427C12.6284 13.477 13.0082 13.477 13.2426 13.2427C13.4769 13.0083 13.4769 12.6284 13.2426 12.3941L12.8183 11.9699ZM4.75733 4.75733C4.99164 4.52302 5.37154 4.52302 5.60585 4.75733L6.03012 5.18159C6.26443 5.41591 6.26443 5.79581 6.03012 6.03012C5.79581 6.26443 5.41591 6.26443 5.18159 6.03012L4.75733 5.60585C4.52302 5.37154 4.52302 4.99164 4.75733 4.75733ZM6.03022 12.8184C6.26453 12.584 6.26453 12.2042 6.03022 11.9699C5.7959 11.7355 5.41601 11.7355 5.1817 11.9699L4.75743 12.3941C4.52311 12.6284 4.52311 13.0083 4.75743 13.2427C4.99174 13.477 5.37164 13.477 5.60596 13.2427L6.03022 12.8184ZM13.2427 4.75733C13.477 4.99164 13.477 5.37154 13.2427 5.60585L12.8184 6.03012C12.5841 6.26443 12.2042 6.26443 11.9699 6.03012C11.7356 5.79581 11.7356 5.41591 11.9699 5.18159L12.3941 4.75733C12.6284 4.52302 13.0084 4.52302 13.2427 4.75733ZM6 9C6 7.34315 7.34315 6 9 6C10.6568 6 12 7.34315 12 9C12 10.6568 10.6568 12 9 12C7.34315 12 6 10.6568 6 9Z" fill="white"/>
</svg>
