<svg width="18" height="18" viewBox="0 0 18 18" fill="none" xmlns="http://www.w3.org/2000/svg">
<path d="M0 9C0 4.02944 4.02944 0 9 0C13.9706 0 18 4.02944 18 9C18 13.9706 13.9706 18 9 18C4.02944 18 0 13.9706 0 9Z" fill="#FEEE00"/>
<path fill-rule="evenodd" clip-rule="evenodd" d="M9.74427 3.88881C10.0075 3.6128 9.88678 3.06524 9.49735 3.06106C7.96541 3.04463 6.45246 3.62292 5.33534 4.79442C3.14284 7.09364 3.30529 10.8073 5.69817 13.0891C8.09105 15.3709 11.8082 15.3568 14.0007 13.0576C15.1178 11.8861 15.6236 10.3474 15.5345 8.81795C15.5118 8.42915 14.9591 8.3346 14.6959 8.61062C13.4431 9.92443 11.319 9.93253 9.9516 8.62863C8.58423 7.32473 8.49143 5.20263 9.74427 3.88881Z" fill="#1A1A1A"/>
</svg>
