<svg width="18" height="19" viewBox="0 0 18 19" fill="none" xmlns="http://www.w3.org/2000/svg">
<path fill-rule="evenodd" clip-rule="evenodd" d="M9 3.5C9.33138 3.5 9.6 3.76863 9.6 4.1V4.7C9.6 5.03137 9.33138 5.3 9 5.3C8.66862 5.3 8.4 5.03137 8.4 4.7V4.1C8.4 3.76863 8.66862 3.5 9 3.5ZM3 9.5C3 9.16862 3.26863 8.9 3.6 8.9H4.2C4.53137 8.9 4.8 9.16862 4.8 9.5C4.8 9.83138 4.53137 10.1 4.2 10.1H3.6C3.26863 10.1 3 9.83138 3 9.5ZM13.2 9.5C13.2 9.16862 13.4686 8.9 13.8 8.9H14.4C14.7314 8.9 15 9.16862 15 9.5C15 9.83138 14.7314 10.1 14.4 10.1H13.8C13.4686 10.1 13.2 9.83138 13.2 9.5ZM9.6 14.3C9.6 13.9686 9.33138 13.7 9 13.7C8.66862 13.7 8.4 13.9686 8.4 14.3V14.9C8.4 15.2314 8.66862 15.5 9 15.5C9.33138 15.5 9.6 15.2314 9.6 14.9V14.3ZM12.8183 12.4699C12.584 12.2355 12.2041 12.2355 11.9698 12.4699C11.7355 12.7042 11.7355 13.084 11.9698 13.3184L12.394 13.7427C12.6284 13.977 13.0082 13.977 13.2426 13.7427C13.4769 13.5083 13.4769 13.1284 13.2426 12.8941L12.8183 12.4699ZM4.75733 5.25733C4.99164 5.02302 5.37154 5.02302 5.60585 5.25733L6.03012 5.68159C6.26443 5.91591 6.26443 6.29581 6.03012 6.53012C5.79581 6.76443 5.41591 6.76443 5.18159 6.53012L4.75733 6.10585C4.52302 5.87154 4.52302 5.49164 4.75733 5.25733ZM6.03022 13.3184C6.26453 13.084 6.26453 12.7042 6.03022 12.4699C5.7959 12.2355 5.41601 12.2355 5.1817 12.4699L4.75743 12.8941C4.52311 13.1284 4.52311 13.5083 4.75743 13.7427C4.99174 13.977 5.37164 13.977 5.60596 13.7427L6.03022 13.3184ZM13.2427 5.25733C13.477 5.49164 13.477 5.87154 13.2427 6.10585L12.8184 6.53012C12.5841 6.76443 12.2042 6.76443 11.9699 6.53012C11.7356 6.29581 11.7356 5.91591 11.9699 5.68159L12.3941 5.25733C12.6284 5.02302 13.0084 5.02302 13.2427 5.25733ZM6 9.5C6 7.84315 7.34315 6.5 9 6.5C10.6568 6.5 12 7.84315 12 9.5C12 11.1568 10.6568 12.5 9 12.5C7.34315 12.5 6 11.1568 6 9.5Z" fill="#787878"/>
</svg>
